<svg id="move" xmlns="http://www.w3.org/2000/svg" width="16" height="16" viewBox="0 0 16 16">
  <path id="Path_182" data-name="Path 182" d="M0,0H16V16H0Z" fill="none"/>
  <path id="Path_183" data-name="Path 183" d="M13.925,5.312h-5.3L7.3,4H3.325A1.309,1.309,0,0,0,2.007,5.312L2,13.188A1.314,1.314,0,0,0,3.325,14.5h10.6a1.314,1.314,0,0,0,1.325-1.312V6.625A1.314,1.314,0,0,0,13.925,5.312Zm0,7.875H3.325V5.312H6.75L8.075,6.625h5.85Zm-5.3-2.625H9.95v1.313h1.325V10.563H12.6V9.25H11.275V7.937H9.95V9.25H8.625Z" transform="translate(-0.625 -1.25)" fill="#556f96"/>
</svg>
