<svg xmlns="http://www.w3.org/2000/svg" width="12" height="12" viewBox="0 0 12 12">
  <g id="download" transform="translate(-0.489)">
    <path id="Path_178" data-name="Path 178" d="M10.823,19.1v2.8H2.155V19.1H.489V22.73a.828.828,0,0,0,.834.823H11.655a.828.828,0,0,0,.834-.823V19.1Z" transform="translate(0 -11.554)" fill="#556f96"/>
    <path id="Path_179" data-name="Path 179" d="M11,7.539,8.638,4.689s-.359-.339.03-.339H10V.2s-.053-.2.252-.2h1.871c.219,0,.214.17.214.17V4.265H13.56c.472,0,.117.355.117.355s-2.006,2.663-2.286,2.943A.262.262,0,0,1,11,7.539Z" transform="translate(-4.658 0)" fill="#556f96"/>
  </g>
</svg>
