<svg id="share" xmlns="http://www.w3.org/2000/svg" width="16" height="16" viewBox="0 0 16 16">
  <path id="Path_184" data-name="Path 184" d="M0,0H16V16H0Z" fill="none"/>
  <path id="Path_185" data-name="Path 185" d="M13.97,5.325H8.65L7.32,4H3.33A1.326,1.326,0,0,0,2.007,5.325L2,13.275A1.331,1.331,0,0,0,3.33,14.6H13.97a1.331,1.331,0,0,0,1.33-1.325V6.65A1.331,1.331,0,0,0,13.97,5.325Zm0,7.95H3.33V5.325H6.768L8.1,6.65H13.97ZM10.645,9.962a1.325,1.325,0,1,0-1.33-1.325A1.331,1.331,0,0,0,10.645,9.962Zm-2.66,2.65H13.3V11.95c0-.881-1.776-1.325-2.66-1.325s-2.66.444-2.66,1.325Z" transform="translate(-0.65 -1.3)" fill="#556f96"/>
</svg>
